<svg data-v-fde0c5aa="" xmlns="http://www.w3.org/2000/svg" viewBox="0 0 300 300" class="iconLeft"><!----><defs data-v-fde0c5aa=""><!----></defs><rect data-v-fde0c5aa="" fill="transparent" x="0" y="0" width="300px" height="300px" class="logo-background-square"></rect><defs data-v-fde0c5aa=""><!----></defs><g data-v-fde0c5aa="" id="c6ae9b83-c46b-43b6-b89c-fbc4e31f1de4" fill="#000000" transform="matrix(2.4784736797345515,0,0,2.4784736797345515,86.58119286485014,127.64416745606748)"><path d="M2.15 7.76Q2.15 11.72 5.73 11.72L5.73 11.72Q9.23 11.72 9.23 7.76L9.23 7.76Q9.23 3.86 5.73 3.86L5.73 3.86Q2.15 3.86 2.15 7.76L2.15 7.76ZM0.82 7.80L0.82 7.80Q0.82 2.83 5.73 2.83L5.73 2.83Q10.56 2.83 10.56 7.80L10.56 7.80Q10.56 11.89 7.25 12.63L7.25 12.63L8.83 14.47L7.85 15.21L5.73 12.74Q0.82 12.74 0.82 7.80ZM17.33 5.50L18.59 5.50L18.59 12.67L17.73 12.67L17.51 11.76Q16.20 12.67 14.88 12.67L14.88 12.67Q12.41 12.67 12.41 10.00L12.41 10.00L12.41 5.50L13.67 5.50L13.67 10.02Q13.67 11.62 15.26 11.62L15.26 11.62Q16.34 11.62 17.33 10.71L17.33 10.71L17.33 5.50ZM20.78 5.50L22.05 5.50L22.05 12.67L20.78 12.67L20.78 5.50ZM20.78 2.90L22.05 2.90L22.05 4.09L20.78 4.09L20.78 2.90ZM29.63 11.44L29.63 12.47Q28.75 12.67 27.72 12.67L27.72 12.67Q23.89 12.67 23.89 8.95L23.89 8.95Q23.89 5.50 27.72 5.50L27.72 5.50Q28.75 5.50 29.63 5.70L29.63 5.70L29.63 6.73Q28.75 6.52 27.65 6.52L27.65 6.52Q25.16 6.52 25.16 8.95L25.16 8.95Q25.16 11.65 27.65 11.65L27.65 11.65Q28.75 11.65 29.63 11.44L29.63 11.44ZM32.50 12.67L31.24 12.67L31.24 2.90L32.50 2.90L32.50 6.06Q33.55 5.50 34.92 5.50L34.92 5.50Q37.60 5.50 37.60 7.57L37.60 7.57Q37.60 9.07 35.55 9.65L35.55 9.65L37.84 12.67L36.24 12.67L33.96 9.63L33.96 9.06Q36.33 8.85 36.33 7.56L36.33 7.56Q36.33 6.52 34.83 6.52L34.83 6.52Q33.65 6.52 32.50 7.16L32.50 7.16L32.50 12.67ZM50.25 11.24L50.25 12.33Q48.99 12.74 47.52 12.74L47.52 12.74Q42.39 12.74 42.39 7.65L42.39 7.65Q42.39 2.83 47.52 2.83L47.52 2.83Q48.99 2.83 50.25 3.24L50.25 3.24L50.25 4.33Q48.99 3.86 47.65 3.86L47.65 3.86Q43.65 3.86 43.65 7.65L43.65 7.65Q43.65 11.72 47.65 11.72L47.65 11.72Q48.99 11.72 50.25 11.24L50.25 11.24ZM51.86 10.51L51.86 10.51Q51.86 8.30 54.77 8.30L54.77 8.30Q55.71 8.30 56.64 8.44L56.64 8.44L56.64 7.76Q56.64 6.52 54.71 6.52L54.71 6.52Q53.60 6.52 52.44 6.86L52.44 6.86L52.44 5.84Q53.60 5.50 54.71 5.50L54.71 5.50Q57.91 5.50 57.91 7.72L57.91 7.72L57.91 12.67L57.20 12.67L56.76 11.96Q55.69 12.67 54.42 12.67L54.42 12.67Q51.86 12.67 51.86 10.51ZM54.77 9.32L54.77 9.32Q53.12 9.32 53.12 10.49L53.12 10.49Q53.12 11.65 54.42 11.65L54.42 11.65Q55.73 11.65 56.64 10.95L56.64 10.95L56.64 9.46Q55.71 9.32 54.77 9.32ZM61.22 12.67L59.96 12.67L59.96 5.50L60.81 5.50L61.04 6.41Q61.98 5.50 63.31 5.50L63.31 5.50L63.31 6.55Q62.02 6.55 61.22 7.46L61.22 7.46L61.22 12.67ZM64.37 6.52L64.37 5.50L69.97 5.50L69.97 6.52L65.69 11.72L69.84 11.72L69.84 12.67L64.23 12.67L64.23 11.72L68.57 6.52L64.37 6.52Z"></path></g><defs data-v-fde0c5aa=""><!----></defs><g data-v-fde0c5aa="" id="caab0aba-357f-4e9e-8989-a9f31a1b8beb" stroke="none" fill="#B4373D" transform="matrix(0.47054333260800757,0,0,0.47054333260800757,33.89093600608922,126.51682833832758)"><g clip-rule="evenodd"><path d="M12.983 10.59l17.018 88.223-5.872-59.049 29.021-1.892-.054-9.883L64.549 1 53.622 18.977z"></path><path d="M59.389 54.548l5.16-53.541-8.74 39.716-19.612 1.045 1.57 20.462-7.766 36.583 12.057-39.899z"></path><path d="M62.8 67.182l.549-10.453-15.979 3.755-.032 11.797-17.337 26.532 21.68-27.616zM65.711 62.394l14.841-4.731 1.509-12.532-15.899 2.095zM72.07 44.502l10.988-1.417 1.581-10.278-8.079-.373L64.549 1l8.43 30.967z"></path><path d="M87.413 31.294l1.256-9.506-9.544-2.694L64.549 1l14.483 22.437-.422 7z"></path></g></g><!----></svg>